# xmcd CD database file
#
# Track frame offsets:
#	150
#	22945
#	50264
#	78403
#	89160
#	111770
#	133330
#	151108
#	180606
#	211918
#	235091
#	260222
#
# Disc length: 3771 seconds
#
# Revision: 0
# Processed by: cddbd v1.5.2PL0 Copyright (c) Steve Scherf et al.
# Submitted via: CDex 1.70beta2
#
DISCID=9e0eb90c
DTITLE=Nicolas Kummert - Quatre
DYEAR=2002
DGENRE=Jazz
TTITLE0=Radio Z
TTITLE1=Simplement
TTITLE2=Bubbles
TTITLE3=5th elephant #1
TTITLE4=5th elephant #2
TTITLE5=Pulcino
TTITLE6=Matongé
TTITLE7=L'éléphant bleu
TTITLE8=Song for Raf, Jules and Yasser
TTITLE9=M4
TTITLE10=Familles
TTITLE11=Il nonno
EXTD=YEAR: 2002
EXTT0=
EXTT1=
EXTT2=
EXTT3=
EXTT4=
EXTT5=
EXTT6=
EXTT7=
EXTT8=
EXTT9=
EXTT10=
EXTT11=
PLAYORDER=
